<svg width="1099" height="257" viewBox="0 0 1099 257" fill="none" xmlns="http://www.w3.org/2000/svg">
<path d="M2 170.293C21.5113 170.293 46.7056 182.968 65.0704 188.834C110.23 203.26 157.302 211.9 203.889 220.052C249.541 228.042 295.739 231.799 341.439 240.336C435.009 257.816 537.319 264.806 626.048 227.342C658.189 213.771 687.218 185.87 702.271 154.605C713.605 131.066 728.136 87.0361 696.725 70.4583C681.284 62.3088 655.906 57.47 639.518 64.7535C623.343 71.9425 617.78 81.6383 609.568 95.4963C587.441 132.834 599.069 168.167 640.944 179.485C665.321 186.073 687.573 193.85 712.413 198.818C728.586 202.052 744.272 201.67 760.746 201.67C779.355 201.67 802.44 205.157 820.013 198.184C857.837 183.175 896.418 170.344 934.586 156.031C966.678 143.997 994.102 116.671 1017.46 92.01C1031.1 77.6145 1043.58 61.9465 1055.81 46.2127C1066.87 31.999 1082.33 12.0046 1097.33 2" stroke="white" stroke-width="3" stroke-linecap="round"/>
</svg>
