<svg width="115" height="118" viewBox="0 0 115 118" fill="none" xmlns="http://www.w3.org/2000/svg">
<path d="M114.5 55.5C114.5 85.8591 88.9971 110.5 57.5 110.5C26.0029 110.5 0.5 85.8591 0.5 55.5C0.5 25.1409 26.0029 0.5 57.5 0.5C88.9971 0.5 114.5 25.1409 114.5 55.5Z" fill="#4E4389" fill-opacity="0.59"/>
<path d="M31.0001 100.5C31.0001 100.5 42.5001 110.5 59.0001 111C75.5001 111.5 87.5001 100.5 87.5001 100.5C87.5001 100.5 103 89.5 107 77C111 64.5 110.5 60.5 107 51C103.5 41.5 92.5001 34 92.5001 34L101 11.5L75.5001 21C75.5001 21 69.5001 18 59.0001 18C48.5001 18 40.5001 21 40.5001 21L17.5001 11.5L26.5001 34C26.5001 34 14.5004 43.5 11.5001 51C8.4998 58.5 8.50012 68.5 11.5001 77C14.5001 85.5 31.0001 100.5 31.0001 100.5Z" fill="#4E4389" fill-opacity="0.59"/>
</svg>
