<svg width="251" height="216" viewBox="0 0 251 216" fill="none" xmlns="http://www.w3.org/2000/svg">
<ellipse cx="127" cy="123.5" rx="121" ry="92.5" fill="#4597E2" fill-opacity="0.38"/>
<path fill-rule="evenodd" clip-rule="evenodd" d="M81.9045 37.6377L0.914062 0.417725L18.1562 83.0439C31.2492 62.4961 54.0054 46.2089 81.9045 37.6377Z" fill="#4597E2" fill-opacity="0.38"/>
<path fill-rule="evenodd" clip-rule="evenodd" d="M232.48 78.1439L250.144 5.9259L176.021 38.9055C199.91 47.0077 219.729 60.8504 232.48 78.1439Z" fill="#4597E2" fill-opacity="0.38"/>
<ellipse cx="70.5" cy="95" rx="11.5" ry="11" fill="#4416A3"/>
<ellipse cx="181.5" cy="95" rx="11.5" ry="11" fill="#4416A3"/>
<path d="M91.5821 146.944C91.4605 149.861 92.8093 153.179 93.2503 156.089C93.8308 159.92 93.6116 163.568 94.8733 167.323C96.5005 172.167 98.0513 179.952 102.893 182.63C105.642 184.151 109.239 186.784 112.565 185.375C114.425 184.586 116.87 183.662 118.519 182.486C120.062 181.386 121.435 178.281 122.318 176.622C123.437 174.522 124.432 170.627 124.573 168.184C124.703 165.926 125.508 163.808 125.602 161.557C125.82 156.321 126.791 151.082 127.012 145.786C127.233 140.47 127.455 135.154 127.676 129.838C127.733 128.474 127.904 124.382 127.847 125.746C127.715 128.9 128.086 131.904 128.506 135.016C128.89 137.857 129.016 140.635 129.576 143.467C130.378 147.526 131.878 151.444 132.924 155.442C134.84 162.761 136.223 170.065 138.308 177.309C139.16 180.273 140.217 185.343 144.087 185.643C145.181 185.727 147.932 186.306 148.876 185.633C150.112 184.752 151.469 183.535 152.419 182.414C155.104 179.243 156.997 176.082 158.819 172.351C160.51 168.884 162.277 164.007 162.551 160.064C162.782 156.742 163.576 153.536 163.717 150.138C163.825 147.565 163.554 145.03 163.662 142.42" stroke="#4416A3" stroke-width="3" stroke-linecap="round"/>
</svg>
